<mxfile host="Electron" agent="Mozilla/5.0 (Windows NT 10.0; Win64; x64) AppleWebKit/537.36 (KHTML, like Gecko) draw.io/28.1.2 Chrome/138.0.7204.243 Electron/37.4.0 Safari/537.36" version="28.1.2">
  <diagram name="Page-1" id="7x_k01PApRXjQRJml1V-">
    <mxGraphModel dx="1489" dy="894" grid="0" gridSize="8" guides="0" tooltips="1" connect="0" arrows="0" fold="1" page="1" pageScale="1" pageWidth="850" pageHeight="1100" background="none" math="0" shadow="0">
      <root>
        <mxCell id="0" />
        <mxCell id="1" parent="0" />
        <mxCell id="s7j0IJeCWLYnn15bMMB7-19" value="" style="edgeStyle=orthogonalEdgeStyle;rounded=0;orthogonalLoop=1;jettySize=auto;html=1;" parent="1" source="s7j0IJeCWLYnn15bMMB7-1" target="s7j0IJeCWLYnn15bMMB7-13" edge="1">
          <mxGeometry relative="1" as="geometry" />
        </mxCell>
        <mxCell id="s7j0IJeCWLYnn15bMMB7-1" value="Users" style="sketch=0;outlineConnect=0;fontColor=#232F3E;gradientColor=none;fillColor=#232F3D;strokeColor=none;dashed=0;verticalLabelPosition=bottom;verticalAlign=top;align=center;html=1;fontSize=12;fontStyle=0;aspect=fixed;pointerEvents=1;shape=mxgraph.aws4.user;" parent="1" vertex="1">
          <mxGeometry x="210" y="20" width="60" height="60" as="geometry" />
        </mxCell>
        <mxCell id="s7j0IJeCWLYnn15bMMB7-20" value="" style="edgeStyle=orthogonalEdgeStyle;rounded=0;orthogonalLoop=1;jettySize=auto;html=1;" parent="1" source="s7j0IJeCWLYnn15bMMB7-3" target="s7j0IJeCWLYnn15bMMB7-14" edge="1">
          <mxGeometry relative="1" as="geometry" />
        </mxCell>
        <mxCell id="s7j0IJeCWLYnn15bMMB7-3" value="Engineers" style="sketch=0;outlineConnect=0;fontColor=#232F3E;gradientColor=none;fillColor=#232F3D;strokeColor=none;dashed=0;verticalLabelPosition=bottom;verticalAlign=top;align=center;html=1;fontSize=12;fontStyle=0;aspect=fixed;pointerEvents=1;shape=mxgraph.aws4.user;" parent="1" vertex="1">
          <mxGeometry x="974" y="24" width="60" height="60" as="geometry" />
        </mxCell>
        <mxCell id="s7j0IJeCWLYnn15bMMB7-22" value="" style="edgeStyle=orthogonalEdgeStyle;rounded=0;orthogonalLoop=1;jettySize=auto;html=1;" parent="1" source="s7j0IJeCWLYnn15bMMB7-13" target="s7j0IJeCWLYnn15bMMB7-21" edge="1">
          <mxGeometry relative="1" as="geometry" />
        </mxCell>
        <mxCell id="s7j0IJeCWLYnn15bMMB7-13" value="Web Application&amp;nbsp;&lt;div&gt;to upload images using API&lt;/div&gt;" style="verticalLabelPosition=bottom;aspect=fixed;html=1;shape=mxgraph.salesforce.web;fillColorStyles=fillColor2,fillColor3,fillColor4;fillColor2=#032d60;fillColor3=#0d9dda;fillColor4=#ffffff;fillColor=none;strokeColor=none;" parent="1" vertex="1">
          <mxGeometry x="210" y="123" width="60" height="47.400000000000006" as="geometry" />
        </mxCell>
        <mxCell id="s7j0IJeCWLYnn15bMMB7-31" value="" style="edgeStyle=orthogonalEdgeStyle;rounded=0;orthogonalLoop=1;jettySize=auto;html=1;" parent="1" source="s7j0IJeCWLYnn15bMMB7-14" target="s7j0IJeCWLYnn15bMMB7-25" edge="1">
          <mxGeometry relative="1" as="geometry" />
        </mxCell>
        <mxCell id="s7j0IJeCWLYnn15bMMB7-14" value="Web Application&lt;div&gt;that hosts Kafka stream&amp;nbsp;&lt;/div&gt;&lt;div&gt;to upload images&amp;nbsp;&lt;/div&gt;" style="verticalLabelPosition=bottom;aspect=fixed;html=1;shape=mxgraph.salesforce.web;fillColorStyles=fillColor2,fillColor3,fillColor4;fillColor2=#032d60;fillColor3=#0d9dda;fillColor4=#ffffff;fillColor=none;strokeColor=none;" parent="1" vertex="1">
          <mxGeometry x="974" y="127" width="60" height="47.400000000000006" as="geometry" />
        </mxCell>
        <mxCell id="s7j0IJeCWLYnn15bMMB7-28" value="" style="edgeStyle=orthogonalEdgeStyle;rounded=0;orthogonalLoop=1;jettySize=auto;html=1;" parent="1" source="s7j0IJeCWLYnn15bMMB7-21" target="s7j0IJeCWLYnn15bMMB7-26" edge="1">
          <mxGeometry relative="1" as="geometry" />
        </mxCell>
        <mxCell id="s7j0IJeCWLYnn15bMMB7-21" value="API Gateway" style="sketch=0;points=[[0,0,0],[0.25,0,0],[0.5,0,0],[0.75,0,0],[1,0,0],[0,1,0],[0.25,1,0],[0.5,1,0],[0.75,1,0],[1,1,0],[0,0.25,0],[0,0.5,0],[0,0.75,0],[1,0.25,0],[1,0.5,0],[1,0.75,0]];outlineConnect=0;fontColor=#232F3E;fillColor=#8C4FFF;strokeColor=#ffffff;dashed=0;verticalLabelPosition=bottom;verticalAlign=top;align=center;html=1;fontSize=12;fontStyle=0;aspect=fixed;shape=mxgraph.aws4.resourceIcon;resIcon=mxgraph.aws4.api_gateway;" parent="1" vertex="1">
          <mxGeometry x="201" y="333" width="78" height="78" as="geometry" />
        </mxCell>
        <mxCell id="s7j0IJeCWLYnn15bMMB7-29" value="" style="edgeStyle=orthogonalEdgeStyle;rounded=0;orthogonalLoop=1;jettySize=auto;html=1;" parent="1" source="s7j0IJeCWLYnn15bMMB7-25" target="s7j0IJeCWLYnn15bMMB7-27" edge="1">
          <mxGeometry relative="1" as="geometry" />
        </mxCell>
        <mxCell id="s7j0IJeCWLYnn15bMMB7-25" value="Amazon MSK&lt;div&gt;(Apache Kafka)&lt;/div&gt;" style="sketch=0;points=[[0,0,0],[0.25,0,0],[0.5,0,0],[0.75,0,0],[1,0,0],[0,1,0],[0.25,1,0],[0.5,1,0],[0.75,1,0],[1,1,0],[0,0.25,0],[0,0.5,0],[0,0.75,0],[1,0.25,0],[1,0.5,0],[1,0.75,0]];outlineConnect=0;fontColor=#232F3E;fillColor=#8C4FFF;strokeColor=#ffffff;dashed=0;verticalLabelPosition=bottom;verticalAlign=top;align=center;html=1;fontSize=12;fontStyle=0;aspect=fixed;shape=mxgraph.aws4.resourceIcon;resIcon=mxgraph.aws4.managed_streaming_for_kafka;" parent="1" vertex="1">
          <mxGeometry x="965" y="337" width="78" height="78" as="geometry" />
        </mxCell>
        <mxCell id="s7j0IJeCWLYnn15bMMB7-26" value="Lambda:&lt;div&gt;U&lt;span style=&quot;background-color: transparent; color: light-dark(rgb(35, 47, 62), rgb(189, 199, 212));&quot;&gt;pload Handler&lt;/span&gt;&lt;/div&gt;" style="sketch=0;points=[[0,0,0],[0.25,0,0],[0.5,0,0],[0.75,0,0],[1,0,0],[0,1,0],[0.25,1,0],[0.5,1,0],[0.75,1,0],[1,1,0],[0,0.25,0],[0,0.5,0],[0,0.75,0],[1,0.25,0],[1,0.5,0],[1,0.75,0]];outlineConnect=0;fontColor=#232F3E;fillColor=#ED7100;strokeColor=#ffffff;dashed=0;verticalLabelPosition=bottom;verticalAlign=top;align=center;html=1;fontSize=12;fontStyle=0;aspect=fixed;shape=mxgraph.aws4.resourceIcon;resIcon=mxgraph.aws4.lambda;" parent="1" vertex="1">
          <mxGeometry x="201" y="459" width="78" height="78" as="geometry" />
        </mxCell>
        <mxCell id="s7j0IJeCWLYnn15bMMB7-27" value="Lambda:&lt;div&gt;Kafka Consumer&lt;/div&gt;" style="sketch=0;points=[[0,0,0],[0.25,0,0],[0.5,0,0],[0.75,0,0],[1,0,0],[0,1,0],[0.25,1,0],[0.5,1,0],[0.75,1,0],[1,1,0],[0,0.25,0],[0,0.5,0],[0,0.75,0],[1,0.25,0],[1,0.5,0],[1,0.75,0]];outlineConnect=0;fontColor=#232F3E;fillColor=#ED7100;strokeColor=#ffffff;dashed=0;verticalLabelPosition=bottom;verticalAlign=top;align=center;html=1;fontSize=12;fontStyle=0;aspect=fixed;shape=mxgraph.aws4.resourceIcon;resIcon=mxgraph.aws4.lambda;" parent="1" vertex="1">
          <mxGeometry x="965" y="463" width="78" height="78" as="geometry" />
        </mxCell>
        <mxCell id="s7j0IJeCWLYnn15bMMB7-30" value="S3&lt;div&gt;Raw Images Bucket&lt;/div&gt;" style="sketch=0;points=[[0,0,0],[0.25,0,0],[0.5,0,0],[0.75,0,0],[1,0,0],[0,1,0],[0.25,1,0],[0.5,1,0],[0.75,1,0],[1,1,0],[0,0.25,0],[0,0.5,0],[0,0.75,0],[1,0.25,0],[1,0.5,0],[1,0.75,0]];outlineConnect=0;fontColor=#232F3E;fillColor=#7AA116;strokeColor=#ffffff;dashed=0;verticalLabelPosition=bottom;verticalAlign=top;align=center;html=1;fontSize=12;fontStyle=0;aspect=fixed;shape=mxgraph.aws4.resourceIcon;resIcon=mxgraph.aws4.s3;" parent="1" vertex="1">
          <mxGeometry x="509" y="807" width="78" height="78" as="geometry" />
        </mxCell>
        <mxCell id="s7j0IJeCWLYnn15bMMB7-35" value="Lambda&amp;nbsp;&lt;div&gt;to process images&lt;/div&gt;" style="sketch=0;points=[[0,0,0],[0.25,0,0],[0.5,0,0],[0.75,0,0],[1,0,0],[0,1,0],[0.25,1,0],[0.5,1,0],[0.75,1,0],[1,1,0],[0,0.25,0],[0,0.5,0],[0,0.75,0],[1,0.25,0],[1,0.5,0],[1,0.75,0]];outlineConnect=0;fontColor=#232F3E;fillColor=#ED7100;strokeColor=#ffffff;dashed=0;verticalLabelPosition=bottom;verticalAlign=top;align=center;html=1;fontSize=12;fontStyle=0;aspect=fixed;shape=mxgraph.aws4.resourceIcon;resIcon=mxgraph.aws4.lambda;" parent="1" vertex="1">
          <mxGeometry x="681" y="941" width="78" height="78" as="geometry" />
        </mxCell>
        <mxCell id="s7j0IJeCWLYnn15bMMB7-82" value="" style="edgeStyle=orthogonalEdgeStyle;rounded=0;orthogonalLoop=1;jettySize=auto;html=1;" parent="1" source="s7j0IJeCWLYnn15bMMB7-49" target="s7j0IJeCWLYnn15bMMB7-43" edge="1">
          <mxGeometry relative="1" as="geometry" />
        </mxCell>
        <mxCell id="s7j0IJeCWLYnn15bMMB7-49" value="Quicksight" style="sketch=0;points=[[0,0,0],[0.25,0,0],[0.5,0,0],[0.75,0,0],[1,0,0],[0,1,0],[0.25,1,0],[0.5,1,0],[0.75,1,0],[1,1,0],[0,0.25,0],[0,0.5,0],[0,0.75,0],[1,0.25,0],[1,0.5,0],[1,0.75,0]];outlineConnect=0;fontColor=#232F3E;fillColor=#8C4FFF;strokeColor=#ffffff;dashed=0;verticalLabelPosition=bottom;verticalAlign=top;align=center;html=1;fontSize=12;fontStyle=0;aspect=fixed;shape=mxgraph.aws4.resourceIcon;resIcon=mxgraph.aws4.quicksight;" parent="1" vertex="1">
          <mxGeometry x="80" y="593" width="78" height="78" as="geometry" />
        </mxCell>
        <mxCell id="s7j0IJeCWLYnn15bMMB7-59" style="edgeStyle=orthogonalEdgeStyle;rounded=0;orthogonalLoop=1;jettySize=auto;html=1;entryX=0;entryY=0.25;entryDx=0;entryDy=0;entryPerimeter=0;exitX=0.5;exitY=1;exitDx=0;exitDy=0;exitPerimeter=0;" parent="1" source="s7j0IJeCWLYnn15bMMB7-26" target="s7j0IJeCWLYnn15bMMB7-30" edge="1">
          <mxGeometry relative="1" as="geometry" />
        </mxCell>
        <mxCell id="s7j0IJeCWLYnn15bMMB7-60" style="edgeStyle=orthogonalEdgeStyle;rounded=0;orthogonalLoop=1;jettySize=auto;html=1;entryX=1;entryY=0.25;entryDx=0;entryDy=0;entryPerimeter=0;exitX=0.5;exitY=1;exitDx=0;exitDy=0;exitPerimeter=0;" parent="1" source="s7j0IJeCWLYnn15bMMB7-27" target="s7j0IJeCWLYnn15bMMB7-30" edge="1">
          <mxGeometry relative="1" as="geometry" />
        </mxCell>
        <mxCell id="s7j0IJeCWLYnn15bMMB7-61" style="edgeStyle=orthogonalEdgeStyle;rounded=0;orthogonalLoop=1;jettySize=auto;html=1;entryX=0.5;entryY=0;entryDx=0;entryDy=0;entryPerimeter=0;exitX=1;exitY=0.75;exitDx=0;exitDy=0;exitPerimeter=0;" parent="1" source="s7j0IJeCWLYnn15bMMB7-30" target="s7j0IJeCWLYnn15bMMB7-35" edge="1">
          <mxGeometry relative="1" as="geometry" />
        </mxCell>
        <mxCell id="s7j0IJeCWLYnn15bMMB7-63" style="edgeStyle=orthogonalEdgeStyle;rounded=0;orthogonalLoop=1;jettySize=auto;html=1;entryX=1;entryY=0.25;entryDx=0;entryDy=0;entryPerimeter=0;exitX=0.5;exitY=1;exitDx=0;exitDy=0;exitPerimeter=0;" parent="1" source="s7j0IJeCWLYnn15bMMB7-35" target="s7j0IJeCWLYnn15bMMB7-32" edge="1">
          <mxGeometry relative="1" as="geometry" />
        </mxCell>
        <mxCell id="s7j0IJeCWLYnn15bMMB7-80" value="" style="endArrow=classic;html=1;rounded=0;entryX=1;entryY=0;entryDx=0;entryDy=0;entryPerimeter=0;exitX=0;exitY=0.5;exitDx=0;exitDy=0;exitPerimeter=0;" parent="1" source="s7j0IJeCWLYnn15bMMB7-27" target="s7j0IJeCWLYnn15bMMB7-43" edge="1">
          <mxGeometry width="50" height="50" relative="1" as="geometry">
            <mxPoint x="1043" y="509" as="sourcePoint" />
            <mxPoint x="1093" y="459" as="targetPoint" />
          </mxGeometry>
        </mxCell>
        <mxCell id="s7j0IJeCWLYnn15bMMB7-81" value="" style="endArrow=classic;html=1;rounded=0;exitX=1;exitY=0.5;exitDx=0;exitDy=0;exitPerimeter=0;entryX=0;entryY=0;entryDx=0;entryDy=0;entryPerimeter=0;" parent="1" source="s7j0IJeCWLYnn15bMMB7-26" target="s7j0IJeCWLYnn15bMMB7-43" edge="1">
          <mxGeometry width="50" height="50" relative="1" as="geometry">
            <mxPoint x="560" y="543" as="sourcePoint" />
            <mxPoint x="1200" y="683" as="targetPoint" />
          </mxGeometry>
        </mxCell>
        <mxCell id="s7j0IJeCWLYnn15bMMB7-85" value="Data Analyst" style="sketch=0;outlineConnect=0;fontColor=#232F3E;gradientColor=none;fillColor=#232F3D;strokeColor=none;dashed=0;verticalLabelPosition=bottom;verticalAlign=top;align=center;html=1;fontSize=12;fontStyle=0;aspect=fixed;pointerEvents=1;shape=mxgraph.aws4.user;" parent="1" vertex="1">
          <mxGeometry x="89" y="803" width="60" height="60" as="geometry" />
        </mxCell>
        <mxCell id="s7j0IJeCWLYnn15bMMB7-99" value="AWS Account" style="points=[[0,0],[0.25,0],[0.5,0],[0.75,0],[1,0],[1,0.25],[1,0.5],[1,0.75],[1,1],[0.75,1],[0.5,1],[0.25,1],[0,1],[0,0.75],[0,0.5],[0,0.25]];outlineConnect=0;gradientColor=none;html=1;whiteSpace=wrap;fontSize=12;fontStyle=0;container=1;pointerEvents=0;collapsible=0;recursiveResize=0;shape=mxgraph.aws4.group;grIcon=mxgraph.aws4.group_account;strokeColor=#CD2264;fillColor=none;verticalAlign=top;align=left;spacingLeft=30;fontColor=#CD2264;dashed=0;" parent="1" vertex="1">
          <mxGeometry x="40" y="300" width="1080" height="1082" as="geometry" />
        </mxCell>
        <mxCell id="s7j0IJeCWLYnn15bMMB7-94" style="edgeStyle=orthogonalEdgeStyle;rounded=0;orthogonalLoop=1;jettySize=auto;html=1;entryX=0.5;entryY=1;entryDx=0;entryDy=0;entryPerimeter=0;" parent="1" source="s7j0IJeCWLYnn15bMMB7-85" target="s7j0IJeCWLYnn15bMMB7-49" edge="1">
          <mxGeometry relative="1" as="geometry" />
        </mxCell>
        <mxCell id="s7j0IJeCWLYnn15bMMB7-100" value="AWS Cloud" style="points=[[0,0],[0.25,0],[0.5,0],[0.75,0],[1,0],[1,0.25],[1,0.5],[1,0.75],[1,1],[0.75,1],[0.5,1],[0.25,1],[0,1],[0,0.75],[0,0.5],[0,0.25]];outlineConnect=0;gradientColor=none;html=1;whiteSpace=wrap;fontSize=12;fontStyle=0;container=1;pointerEvents=0;collapsible=0;recursiveResize=0;shape=mxgraph.aws4.group;grIcon=mxgraph.aws4.group_aws_cloud_alt;strokeColor=#232F3E;fillColor=none;verticalAlign=top;align=left;spacingLeft=30;fontColor=#232F3E;dashed=0;" parent="1" vertex="1">
          <mxGeometry x="10" y="260" width="1204" height="1157" as="geometry" />
        </mxCell>
        <mxCell id="FJrE0K9nXCOdCWLySih9-40" value="" style="rounded=0;whiteSpace=wrap;html=1;" parent="s7j0IJeCWLYnn15bMMB7-100" vertex="1">
          <mxGeometry x="783" y="981" width="230" height="132" as="geometry" />
        </mxCell>
        <mxCell id="FJrE0K9nXCOdCWLySih9-39" value="" style="rounded=0;whiteSpace=wrap;html=1;" parent="s7j0IJeCWLYnn15bMMB7-100" vertex="1">
          <mxGeometry x="358" y="981" width="421" height="132" as="geometry" />
        </mxCell>
        <mxCell id="FJrE0K9nXCOdCWLySih9-12" value="" style="rounded=0;whiteSpace=wrap;html=1;" parent="s7j0IJeCWLYnn15bMMB7-100" vertex="1">
          <mxGeometry x="50" y="981" width="304" height="132" as="geometry" />
        </mxCell>
        <mxCell id="s7j0IJeCWLYnn15bMMB7-43" value="DynamoDB" style="sketch=0;points=[[0,0,0],[0.25,0,0],[0.5,0,0],[0.75,0,0],[1,0,0],[0,1,0],[0.25,1,0],[0.5,1,0],[0.75,1,0],[1,1,0],[0,0.25,0],[0,0.5,0],[0,0.75,0],[1,0.25,0],[1,0.5,0],[1,0.75,0]];outlineConnect=0;fontColor=#232F3E;fillColor=#C925D1;strokeColor=#ffffff;dashed=0;verticalLabelPosition=bottom;verticalAlign=top;align=center;html=1;fontSize=12;fontStyle=0;aspect=fixed;shape=mxgraph.aws4.resourceIcon;resIcon=mxgraph.aws4.dynamodb;" parent="s7j0IJeCWLYnn15bMMB7-100" vertex="1">
          <mxGeometry x="499" y="333" width="78" height="78" as="geometry" />
        </mxCell>
        <mxCell id="s7j0IJeCWLYnn15bMMB7-32" value="S3&lt;div&gt;Processed Images Bucket&lt;/div&gt;" style="sketch=0;points=[[0,0,0],[0.25,0,0],[0.5,0,0],[0.75,0,0],[1,0,0],[0,1,0],[0.25,1,0],[0.5,1,0],[0.75,1,0],[1,1,0],[0,0.25,0],[0,0.5,0],[0,0.75,0],[1,0.25,0],[1,0.5,0],[1,0.75,0]];outlineConnect=0;fontColor=#232F3E;fillColor=#7AA116;strokeColor=#ffffff;dashed=0;verticalLabelPosition=bottom;verticalAlign=top;align=center;html=1;fontSize=12;fontStyle=0;aspect=fixed;shape=mxgraph.aws4.resourceIcon;resIcon=mxgraph.aws4.s3;" parent="s7j0IJeCWLYnn15bMMB7-100" vertex="1">
          <mxGeometry x="499" y="820" width="78" height="78" as="geometry" />
        </mxCell>
        <mxCell id="WwFzNlLmqDnFHMuQ1UVr-1" value="CloudWatch" style="sketch=0;points=[[0,0,0],[0.25,0,0],[0.5,0,0],[0.75,0,0],[1,0,0],[0,1,0],[0.25,1,0],[0.5,1,0],[0.75,1,0],[1,1,0],[0,0.25,0],[0,0.5,0],[0,0.75,0],[1,0.25,0],[1,0.5,0],[1,0.75,0]];points=[[0,0,0],[0.25,0,0],[0.5,0,0],[0.75,0,0],[1,0,0],[0,1,0],[0.25,1,0],[0.5,1,0],[0.75,1,0],[1,1,0],[0,0.25,0],[0,0.5,0],[0,0.75,0],[1,0.25,0],[1,0.5,0],[1,0.75,0]];outlineConnect=0;fontColor=#232F3E;fillColor=#E7157B;strokeColor=#ffffff;dashed=0;verticalLabelPosition=bottom;verticalAlign=top;align=center;html=1;fontSize=12;fontStyle=0;aspect=fixed;shape=mxgraph.aws4.resourceIcon;resIcon=mxgraph.aws4.cloudwatch_2;" parent="s7j0IJeCWLYnn15bMMB7-100" vertex="1">
          <mxGeometry x="65" y="1002" width="78" height="78" as="geometry" />
        </mxCell>
        <mxCell id="WwFzNlLmqDnFHMuQ1UVr-2" value="CloudTrail" style="sketch=0;points=[[0,0,0],[0.25,0,0],[0.5,0,0],[0.75,0,0],[1,0,0],[0,1,0],[0.25,1,0],[0.5,1,0],[0.75,1,0],[1,1,0],[0,0.25,0],[0,0.5,0],[0,0.75,0],[1,0.25,0],[1,0.5,0],[1,0.75,0]];points=[[0,0,0],[0.25,0,0],[0.5,0,0],[0.75,0,0],[1,0,0],[0,1,0],[0.25,1,0],[0.5,1,0],[0.75,1,0],[1,1,0],[0,0.25,0],[0,0.5,0],[0,0.75,0],[1,0.25,0],[1,0.5,0],[1,0.75,0]];outlineConnect=0;fontColor=#232F3E;fillColor=#E7157B;strokeColor=#ffffff;dashed=0;verticalLabelPosition=bottom;verticalAlign=top;align=center;html=1;fontSize=12;fontStyle=0;aspect=fixed;shape=mxgraph.aws4.resourceIcon;resIcon=mxgraph.aws4.cloudtrail;" parent="s7j0IJeCWLYnn15bMMB7-100" vertex="1">
          <mxGeometry x="172" y="1003" width="78" height="78" as="geometry" />
        </mxCell>
        <mxCell id="WwFzNlLmqDnFHMuQ1UVr-3" value="IAM" style="outlineConnect=0;dashed=0;verticalLabelPosition=bottom;verticalAlign=top;align=center;html=1;shape=mxgraph.aws3.iam;fillColor=#759C3E;gradientColor=none;" parent="s7j0IJeCWLYnn15bMMB7-100" vertex="1">
          <mxGeometry x="479" y="1002" width="42" height="81" as="geometry" />
        </mxCell>
        <mxCell id="WwFzNlLmqDnFHMuQ1UVr-5" value="" style="endArrow=none;dashed=1;html=1;dashPattern=1 3;strokeWidth=2;rounded=0;" parent="s7j0IJeCWLYnn15bMMB7-100" edge="1">
          <mxGeometry width="50" height="50" relative="1" as="geometry">
            <mxPoint x="15.004444444444573" y="974" as="sourcePoint" />
            <mxPoint x="1135" y="974" as="targetPoint" />
          </mxGeometry>
        </mxCell>
        <mxCell id="WwFzNlLmqDnFHMuQ1UVr-16" value="&lt;span style=&quot;font-size: 11px; text-wrap-mode: nowrap; background-color: rgb(255, 255, 255);&quot;&gt;Lifecycle Policy&lt;/span&gt;&lt;div style=&quot;font-size: 11px; text-wrap-mode: nowrap;&quot;&gt;to purge images&amp;nbsp;&lt;/div&gt;&lt;div style=&quot;font-size: 11px; text-wrap-mode: nowrap;&quot;&gt;after 7 days&lt;/div&gt;" style="text;html=1;align=center;verticalAlign=middle;whiteSpace=wrap;rounded=0;" parent="s7j0IJeCWLYnn15bMMB7-100" vertex="1">
          <mxGeometry x="508" y="785" width="60" height="30" as="geometry" />
        </mxCell>
        <mxCell id="WwFzNlLmqDnFHMuQ1UVr-17" value="Secrets Manager" style="sketch=0;points=[[0,0,0],[0.25,0,0],[0.5,0,0],[0.75,0,0],[1,0,0],[0,1,0],[0.25,1,0],[0.5,1,0],[0.75,1,0],[1,1,0],[0,0.25,0],[0,0.5,0],[0,0.75,0],[1,0.25,0],[1,0.5,0],[1,0.75,0]];outlineConnect=0;fontColor=#232F3E;fillColor=#DD344C;strokeColor=#ffffff;dashed=0;verticalLabelPosition=bottom;verticalAlign=top;align=center;html=1;fontSize=12;fontStyle=0;aspect=fixed;shape=mxgraph.aws4.resourceIcon;resIcon=mxgraph.aws4.secrets_manager;" parent="s7j0IJeCWLYnn15bMMB7-100" vertex="1">
          <mxGeometry x="368" y="1005" width="78" height="78" as="geometry" />
        </mxCell>
        <mxCell id="WwFzNlLmqDnFHMuQ1UVr-18" value="Key Management Service" style="sketch=0;points=[[0,0,0],[0.25,0,0],[0.5,0,0],[0.75,0,0],[1,0,0],[0,1,0],[0.25,1,0],[0.5,1,0],[0.75,1,0],[1,1,0],[0,0.25,0],[0,0.5,0],[0,0.75,0],[1,0.25,0],[1,0.5,0],[1,0.75,0]];outlineConnect=0;fontColor=#232F3E;fillColor=#DD344C;strokeColor=#ffffff;dashed=0;verticalLabelPosition=bottom;verticalAlign=top;align=center;html=1;fontSize=12;fontStyle=0;aspect=fixed;shape=mxgraph.aws4.resourceIcon;resIcon=mxgraph.aws4.key_management_service;" parent="s7j0IJeCWLYnn15bMMB7-100" vertex="1">
          <mxGeometry x="560" y="1004" width="78" height="78" as="geometry" />
        </mxCell>
        <mxCell id="WwFzNlLmqDnFHMuQ1UVr-19" value="GuardDuty" style="sketch=0;points=[[0,0,0],[0.25,0,0],[0.5,0,0],[0.75,0,0],[1,0,0],[0,1,0],[0.25,1,0],[0.5,1,0],[0.75,1,0],[1,1,0],[0,0.25,0],[0,0.5,0],[0,0.75,0],[1,0.25,0],[1,0.5,0],[1,0.75,0]];outlineConnect=0;fontColor=#232F3E;fillColor=#DD344C;strokeColor=#ffffff;dashed=0;verticalLabelPosition=bottom;verticalAlign=top;align=center;html=1;fontSize=12;fontStyle=0;aspect=fixed;shape=mxgraph.aws4.resourceIcon;resIcon=mxgraph.aws4.guardduty;" parent="s7j0IJeCWLYnn15bMMB7-100" vertex="1">
          <mxGeometry x="687" y="1006" width="78" height="78" as="geometry" />
        </mxCell>
        <mxCell id="WwFzNlLmqDnFHMuQ1UVr-20" value="CodePipeline" style="outlineConnect=0;dashed=0;verticalLabelPosition=bottom;verticalAlign=top;align=center;html=1;shape=mxgraph.aws3.codepipeline;fillColor=#759C3E;gradientColor=none;" parent="s7j0IJeCWLYnn15bMMB7-100" vertex="1">
          <mxGeometry x="804" y="1007" width="67.5" height="81" as="geometry" />
        </mxCell>
        <mxCell id="WwFzNlLmqDnFHMuQ1UVr-21" value="CodeCommit" style="outlineConnect=0;dashed=0;verticalLabelPosition=bottom;verticalAlign=top;align=center;html=1;shape=mxgraph.aws3.codecommit;fillColor=#759C3E;gradientColor=none;" parent="s7j0IJeCWLYnn15bMMB7-100" vertex="1">
          <mxGeometry x="905" y="1000" width="76.5" height="93" as="geometry" />
        </mxCell>
        <mxCell id="WwFzNlLmqDnFHMuQ1UVr-22" value="1" style="ellipse;whiteSpace=wrap;html=1;aspect=fixed;rotation=0;gradientColor=#223548;strokeColor=none;gradientDirection=east;fillColor=#5b738b;rounded=0;pointerEvents=0;fontFamily=Helvetica;fontSize=16;fontColor=#FFFFFF;spacingTop=4;spacingBottom=4;spacingLeft=4;spacingRight=4;points=[];fontStyle=1" parent="s7j0IJeCWLYnn15bMMB7-100" vertex="1">
          <mxGeometry x="279" y="166" width="30" height="30" as="geometry" />
        </mxCell>
        <mxCell id="s7j0IJeCWLYnn15bMMB7-54" value="Sagemaker" style="sketch=0;points=[[0,0,0],[0.25,0,0],[0.5,0,0],[0.75,0,0],[1,0,0],[0,1,0],[0.25,1,0],[0.5,1,0],[0.75,1,0],[1,1,0],[0,0.25,0],[0,0.5,0],[0,0.75,0],[1,0.25,0],[1,0.5,0],[1,0.75,0]];outlineConnect=0;fontColor=#232F3E;fillColor=#8C4FFF;strokeColor=#ffffff;dashed=0;verticalLabelPosition=bottom;verticalAlign=top;align=center;html=1;fontSize=12;fontStyle=0;aspect=fixed;shape=mxgraph.aws4.resourceIcon;resIcon=mxgraph.aws4.sagemaker_2;" parent="s7j0IJeCWLYnn15bMMB7-100" vertex="1">
          <mxGeometry x="71" y="820" width="78" height="78" as="geometry" />
        </mxCell>
        <mxCell id="s7j0IJeCWLYnn15bMMB7-83" value="" style="edgeStyle=orthogonalEdgeStyle;rounded=0;orthogonalLoop=1;jettySize=auto;html=1;" parent="s7j0IJeCWLYnn15bMMB7-100" source="s7j0IJeCWLYnn15bMMB7-54" target="s7j0IJeCWLYnn15bMMB7-32" edge="1">
          <mxGeometry relative="1" as="geometry" />
        </mxCell>
        <mxCell id="WwFzNlLmqDnFHMuQ1UVr-24" value="2" style="ellipse;whiteSpace=wrap;html=1;aspect=fixed;rotation=0;gradientColor=#223548;strokeColor=none;gradientDirection=east;fillColor=#5b738b;rounded=0;pointerEvents=0;fontFamily=Helvetica;fontSize=16;fontColor=#FFFFFF;spacingTop=4;spacingBottom=4;spacingLeft=4;spacingRight=4;points=[];fontStyle=1" parent="s7j0IJeCWLYnn15bMMB7-100" vertex="1">
          <mxGeometry x="906" y="168" width="30" height="30" as="geometry" />
        </mxCell>
        <mxCell id="WwFzNlLmqDnFHMuQ1UVr-25" value="CloudFormation" style="outlineConnect=0;dashed=0;verticalLabelPosition=bottom;verticalAlign=top;align=center;html=1;shape=mxgraph.aws3.cloudformation;fillColor=#759C3E;gradientColor=none;" parent="s7j0IJeCWLYnn15bMMB7-100" vertex="1">
          <mxGeometry x="267" y="1000" width="76.5" height="93" as="geometry" />
        </mxCell>
        <mxCell id="FJrE0K9nXCOdCWLySih9-1" value="3" style="ellipse;whiteSpace=wrap;html=1;aspect=fixed;rotation=0;gradientColor=#223548;strokeColor=none;gradientDirection=east;fillColor=#5b738b;rounded=0;pointerEvents=0;fontFamily=Helvetica;fontSize=16;fontColor=#FFFFFF;spacingTop=4;spacingBottom=4;spacingLeft=4;spacingRight=4;points=[];fontStyle=1" parent="s7j0IJeCWLYnn15bMMB7-100" vertex="1">
          <mxGeometry x="766" y="702" width="30" height="30" as="geometry" />
        </mxCell>
        <mxCell id="FJrE0K9nXCOdCWLySih9-3" value="4" style="ellipse;whiteSpace=wrap;html=1;aspect=fixed;rotation=0;gradientColor=#223548;strokeColor=none;gradientDirection=east;fillColor=#5b738b;rounded=0;pointerEvents=0;fontFamily=Helvetica;fontSize=16;fontColor=#FFFFFF;spacingTop=4;spacingBottom=4;spacingLeft=4;spacingRight=4;points=[];fontStyle=1" parent="s7j0IJeCWLYnn15bMMB7-100" vertex="1">
          <mxGeometry x="455" y="780" width="30" height="30" as="geometry" />
        </mxCell>
        <mxCell id="FJrE0K9nXCOdCWLySih9-4" value="5" style="ellipse;whiteSpace=wrap;html=1;aspect=fixed;rotation=0;gradientColor=#223548;strokeColor=none;gradientDirection=east;fillColor=#5b738b;rounded=0;pointerEvents=0;fontFamily=Helvetica;fontSize=16;fontColor=#FFFFFF;spacingTop=4;spacingBottom=4;spacingLeft=4;spacingRight=4;points=[];fontStyle=1" parent="s7j0IJeCWLYnn15bMMB7-100" vertex="1">
          <mxGeometry x="127" y="779" width="30" height="30" as="geometry" />
        </mxCell>
        <mxCell id="FJrE0K9nXCOdCWLySih9-5" value="5" style="ellipse;whiteSpace=wrap;html=1;aspect=fixed;rotation=0;gradientColor=#223548;strokeColor=none;gradientDirection=east;fillColor=#5b738b;rounded=0;pointerEvents=0;fontFamily=Helvetica;fontSize=16;fontColor=#FFFFFF;spacingTop=4;spacingBottom=4;spacingLeft=4;spacingRight=4;points=[];fontStyle=1" parent="s7j0IJeCWLYnn15bMMB7-100" vertex="1">
          <mxGeometry x="136" y="421" width="30" height="30" as="geometry" />
        </mxCell>
        <mxCell id="FJrE0K9nXCOdCWLySih9-8" value="6" style="ellipse;whiteSpace=wrap;html=1;aspect=fixed;rotation=0;gradientColor=#223548;strokeColor=none;gradientDirection=east;fillColor=#5b738b;rounded=0;pointerEvents=0;fontFamily=Helvetica;fontSize=16;fontColor=#FFFFFF;spacingTop=4;spacingBottom=4;spacingLeft=4;spacingRight=4;points=[];fontStyle=1" parent="s7j0IJeCWLYnn15bMMB7-100" vertex="1">
          <mxGeometry x="542" y="963" width="30" height="30" as="geometry" />
        </mxCell>
        <mxCell id="FJrE0K9nXCOdCWLySih9-9" value="7" style="ellipse;whiteSpace=wrap;html=1;aspect=fixed;rotation=0;gradientColor=#223548;strokeColor=none;gradientDirection=east;fillColor=#5b738b;rounded=0;pointerEvents=0;fontFamily=Helvetica;fontSize=16;fontColor=#FFFFFF;spacingTop=4;spacingBottom=4;spacingLeft=4;spacingRight=4;points=[];fontStyle=1" parent="s7j0IJeCWLYnn15bMMB7-100" vertex="1">
          <mxGeometry x="89" y="963" width="30" height="30" as="geometry" />
        </mxCell>
        <mxCell id="FJrE0K9nXCOdCWLySih9-10" value="8" style="ellipse;whiteSpace=wrap;html=1;aspect=fixed;rotation=0;gradientColor=#223548;strokeColor=none;gradientDirection=east;fillColor=#5b738b;rounded=0;pointerEvents=0;fontFamily=Helvetica;fontSize=16;fontColor=#FFFFFF;spacingTop=4;spacingBottom=4;spacingLeft=4;spacingRight=4;points=[];fontStyle=1" parent="s7j0IJeCWLYnn15bMMB7-100" vertex="1">
          <mxGeometry x="856" y="967" width="30" height="30" as="geometry" />
        </mxCell>
        <mxCell id="lKmu7d1V5k8c3pGYFW8a-1" value="" style="shape=image;verticalLabelPosition=bottom;labelBackgroundColor=default;verticalAlign=top;aspect=fixed;imageAspect=0;image=data:image/png,iVBORw0KGgoAAAANSUhEUgAAAFcAAABWCAYAAAC6lArJAAAAAXNSR0IArs4c6QAAAARnQU1BAACxjwv8YQUAAAAJcEhZcwAAEnQAABJ0Ad5mH3gAAAbbSURBVHhe7dx7cExXHAfwb1jJyju7eXiNhvEKiVSoZlBabTBDGa14NEKUSJpJgoZ4EyUhhFAkMUhCNUQ7xLS09IVqh1RFvCWopjomr01YiTyb5tyc22pnE8lm72Pt+fxj9+cP4zt3f/ecc8+5ZhWVNXVgBNGG/skIgIUrIBaugFi4AmLhCoiFKyAWroBYuAJi4QpIZ7hb1pagVFNLvzH60hnujStVWBhUhPTUJ7TC6KPJtvDN8TLM8c3H2W+f0grTEs3quft3Pcby8GLk3KimFaY5dK6Kkau1MQMGW2Da+zZQqdvSCtOYFo8WsjIrERlchKMHWT9+nhaHyzt+pAxBU/Nx7nvWjxujd7hEbf1oLTXxMT5aVIxb16toleG1uOc25ZUhSrw73RqOTqwfE626cv/vl58rsCSkCEfSymjFtBk0XN6Jo08QHlBo8uNjg7YFXV7qrqhvFTbo62FOK6ZDkCv3Wb/fq8Gdm6Z5sxM83Gfdrh9RZP9aSb/JV21tHfbvy4VGU0Er+hE1XGL7hlLErtKgMF+eq26nTj5AwMzTSEvLpRX9iR4ukXuzGktDi3BgtxZ1MtmScvWKBosjL2DLlisoLDTMjViScHmnT5UjcHI+vvuqnFbEV1RUgfj4q1i06Dyys4tp1TAkDZd3MFmLRcFFuJ4t7o3v0KG7XAs4+fUftGJYsgiXKCmuRfy6EmyNLkX+wxpaFcaZMw8xN/BHpKbcRk3NX7RqeLIJl3ftciW3dnx4nxa1Bt4jmJPzGKtWXsT6mCzk5WlpVTiyC5d36styBE0rwA8nW9+PtdpqJCbcQHjYOWRmFtCq8GQbLu/TPVqsnF+Mq1n69eOMjPuYFXAax47dpxXxyD5c4uGfNdgWU4IdsaXc5+Y4f74AYaE/ISnxBp48kebxlM5we/RpRz/Jy+WLldxVTJ5KV1fp7sekl8ZEZyFq9UXk5j6iVWnoDHfJWhVmBtvCylqeFzZ5Kh0+q/A/4+OqqlqkJOdwo4CzZx/SqrQaTe+1N9tjW4oTfMZZ0Yq8kCuXjI/JegVx4kQe0tPvcJ/l4rmX5pSZ1lizWQ13TwtaYZqrWb/7zl0VmL/CHnPn27FH6i3QoqY6eKgSG5Mc8fYka1phmqLXHWvCFCtsTXbCQG8lrTC66BUuYW3TBh9E2CEySoWOXeQ5dJOa3uHyevVrh7XxKrw324ZWGF6rw+WNHGOJPZ+5YLiPJa0wBguXN2OuDaI/VqN7LwWtmC6Dh0u4dFRgWbQaIQvtYaE0o1XTI0i4PK9XLbDzE2f6zfQIGi5v/GTTHBeLEi6vdz9zLI9Ro1dfee++8fRUIS7OGypV68bxooZLdOupQOQaB8wKsYO1rej/fJNcXCwREdEfsRu94e6holX9ifq/IytYVXQddugbSmzd64TR4+Wx6ubn1xMpqSPgM6oLrbSe6JdOiF8Bvvj83y3/vv7W3NDNw0uaVbeRIzthb/II+M/oiTZtDDuykeR3eSy9DKEzCnDpQsO+MTJ0m7fUnhu6OTqJMz5262uPmPWDEbn4ZXTuLMyvR7KmV/G0DglxpYhZrsGDvIbnYmTotiFBjfG+wrUKBwclwsLcER8/BF5ejrQqDMnvKPdyqhEVUcydraioaOjHZOhGxsfkGIAh+fp2r++rwzF2XFdaEZbk4fLIqaBQ/wJuvwJBZnZBC+y4mR5ZrG+NYcM6IGnXcMye0wdKpXjTctmEyyM7bT4MLMKlzIZ+TNYoyGMmsmZh1sIbTo8etohaMwgrVnrB1VX8iYzswiUel9YiYVMp4tZokHe/oR+T1bbd6c7c6tvzWFkpEBTshh07h8HbW7rptyzD5d26Vs2dcTuwR4vysoYNc2TdODbBkVtH1mXCBFekpr6OiRO70Yp0RH0jHplEbIoqod9ablL9mHjMM5MOcgRAWd+bybQ6I+M3uLmp0Lu3Hf1b6RlVuISziwLvTLfCICN4fifrtqBLQX4NkjY/4t5mcv+uvF9RYHTh8sjbTNYt0fyz40aOjDZcY8DCFRALV0AsXAGxcAXEwhUQC1dALFwBsXAFxMIVEAtXQKKGq3Jsi0HepnNwRdRwnVzaIjjCnju80tX1xd9iKklbIMeuVm1Sw2+OzQu9xVTSnvvGaEvuEbrPWHkeJGwtWdzQpgRYI2a7Gv0l2tIkFFmESzh3UCB8qT3mLXNAh04vRj+WTbg8jwHmWLdNjakBNjAz8nYsu3B5b421xO7DLhgxqj2tGB/ZhsvzD7TFhp1q9HE3vndByj5cwtFZgYWrHbBghQM3ETEWRhEur5+nOTYmOnIvpDcGom4KMbS0vVoMrJ9Okx03cmTU4RLkZW8OsnwHBPA3FssO3D3OTXkAAAAASUVORK5CYII=;" vertex="1" parent="s7j0IJeCWLYnn15bMMB7-100">
          <mxGeometry x="1114.9985365513392" y="1004.9986063058036" width="87" height="86" as="geometry" />
        </mxCell>
        <mxCell id="lKmu7d1V5k8c3pGYFW8a-2" value="9" style="ellipse;whiteSpace=wrap;html=1;aspect=fixed;rotation=0;gradientColor=#223548;strokeColor=none;gradientDirection=east;fillColor=#5b738b;rounded=0;pointerEvents=0;fontFamily=Helvetica;fontSize=16;fontColor=#FFFFFF;spacingTop=4;spacingBottom=4;spacingLeft=4;spacingRight=4;points=[];fontStyle=1" vertex="1" parent="s7j0IJeCWLYnn15bMMB7-100">
          <mxGeometry x="1142" y="969" width="30" height="30" as="geometry" />
        </mxCell>
        <mxCell id="lKmu7d1V5k8c3pGYFW8a-3" value="Terraform" style="text;html=1;align=center;verticalAlign=middle;whiteSpace=wrap;rounded=0;" vertex="1" parent="s7j0IJeCWLYnn15bMMB7-100">
          <mxGeometry x="1031" y="1082" width="60" height="30" as="geometry" />
        </mxCell>
        <mxCell id="s7j0IJeCWLYnn15bMMB7-101" style="edgeStyle=orthogonalEdgeStyle;rounded=0;orthogonalLoop=1;jettySize=auto;html=1;entryX=1;entryY=0.5;entryDx=0;entryDy=0;entryPerimeter=0;exitX=0.75;exitY=0;exitDx=0;exitDy=0;exitPerimeter=0;" parent="1" source="s7j0IJeCWLYnn15bMMB7-35" target="s7j0IJeCWLYnn15bMMB7-43" edge="1">
          <mxGeometry relative="1" as="geometry" />
        </mxCell>
        <mxCell id="WwFzNlLmqDnFHMuQ1UVr-23" value="Text" style="text;html=1;align=center;verticalAlign=middle;resizable=0;points=[];autosize=1;strokeColor=none;fillColor=none;" parent="1" vertex="1">
          <mxGeometry x="216" y="943" width="40" height="26" as="geometry" />
        </mxCell>
        <mxCell id="s7j0IJeCWLYnn15bMMB7-97" style="edgeStyle=orthogonalEdgeStyle;rounded=0;orthogonalLoop=1;jettySize=auto;html=1;" parent="1" source="s7j0IJeCWLYnn15bMMB7-85" target="s7j0IJeCWLYnn15bMMB7-54" edge="1">
          <mxGeometry relative="1" as="geometry">
            <mxPoint x="119" y="1043" as="targetPoint" />
          </mxGeometry>
        </mxCell>
      </root>
    </mxGraphModel>
  </diagram>
</mxfile>
